<svg width="40" height="40" viewBox="0 0 40 40" fill="none" xmlns="http://www.w3.org/2000/svg">
<path d="M35.0284 14.6046C34.5535 12.2581 32.4755 10.486 29.9912 10.486C29.2431 10.486 28.512 10.6498 27.844 10.957L27.6048 10.1884C27.1723 8.79809 26.1563 7.67278 24.8173 7.10107C23.4783 6.5293 21.9629 6.57354 20.6596 7.22249C19.7114 7.69456 18.5801 7.6152 17.7073 7.01538L17.4985 6.87191C16.5238 6.20213 15.3393 5.90233 14.1633 6.02803C12.9873 6.15367 11.8929 6.69679 11.0817 7.55742L8.64315 10.1442L5.28744 8.89317V14.6046H3V18.3501C3 24.2058 5.91767 29.6371 10.8048 32.8787L11.0613 33.0489H29.7854L30.042 32.8787C34.9292 29.6371 37.8468 24.2059 37.8468 18.3501V14.6046H35.0284ZM32.9151 14.6046H29.5792C29.4436 13.9346 29.1774 13.3114 28.8082 12.763C29.1801 12.6093 29.5814 12.5279 29.9911 12.5279C31.3415 12.5279 32.4921 13.3968 32.9151 14.6046ZM27.4659 14.6046H21.618C22.0409 13.3968 23.1916 12.5279 24.5419 12.5279C25.8923 12.5279 27.0429 13.3968 27.4659 14.6046ZM12.5674 8.95789C13.561 7.90405 15.1483 7.73424 16.3421 8.55463L16.5509 8.69811C18.0347 9.71785 19.9579 9.85282 21.5696 9.05025C22.3364 8.66843 23.2278 8.64236 24.0154 8.97879C24.7367 9.28676 25.2979 9.86833 25.5828 10.5921C25.2466 10.5227 24.8984 10.486 24.5419 10.486C22.1925 10.486 20.2077 12.0712 19.5972 14.2279L10.7195 10.9182L12.5674 8.95789ZM7.32924 11.8334L14.7624 14.6046H7.32924V11.8334ZM5.04181 16.6464H35.805C35.805 16.6464 35.8023 18.5778 35.7998 18.6915H5.04705C5.04453 18.5779 5.04181 16.6464 5.04181 16.6464ZM29.1646 31.0071H11.6822C8.17993 28.5849 5.87207 24.8689 5.22679 20.7333H35.62C34.9748 24.8689 32.6669 28.5848 29.1646 31.0071Z" fill="#010002"/>
</svg>
