<svg width="40" height="40" viewBox="0 0 40 40" fill="none" xmlns="http://www.w3.org/2000/svg">
<mask id="path-1-inside-1_14_889" fill="white">
<path d="M38.2514 37.3511C38.4338 37.1566 38.4891 36.8746 38.3929 36.626L27.3757 8.04598C27.9629 7.0284 28.0741 5.75382 27.5618 4.60043C26.711 2.6859 24.4613 1.82031 22.5466 2.67099C18.032 4.67709 14.0172 7.50983 10.6139 11.0908C7.21061 14.6717 4.58555 18.8253 2.81161 23.4361C2.62743 23.9149 2.54701 24.4084 2.55931 24.892C2.59731 26.3832 3.51698 27.7786 4.99357 28.3466C5.98704 28.7287 7.04416 28.6634 7.94279 28.2508L37.5368 37.5385C37.7912 37.6184 38.0689 37.5456 38.2514 37.3511ZM27.5695 12.4109L28.737 15.4398C28.3638 15.8084 27.8419 15.9967 27.3078 15.9402C26.8375 15.8903 26.4147 15.6604 26.1173 15.2927C25.82 14.925 25.6838 14.4637 25.7334 13.9931C25.7832 13.5229 26.0131 13.1001 26.3809 12.8028C26.7198 12.5288 27.1382 12.3919 27.5695 12.4109ZM5.49249 27.05C4.25202 26.5727 3.63107 25.1751 4.10843 23.9349C7.56498 14.9503 14.3136 7.84957 23.1108 3.94063C23.6991 3.6792 24.354 3.66255 24.955 3.89372C25.5558 4.1249 26.0307 4.57621 26.2921 5.16454C26.5535 5.75288 26.5702 6.40783 26.339 7.0087C26.1078 7.60956 25.6565 8.08443 25.0682 8.34585C21.3026 10.019 17.9539 12.3818 15.1152 15.3687C12.2765 18.3556 10.087 21.82 8.60739 25.6658C8.13025 26.9063 6.73282 27.5272 5.49249 27.05ZM26.7065 32.6835C26.7064 32.6206 26.7085 32.5576 26.7151 32.4947C26.7649 32.0245 26.9948 31.6017 27.3625 31.3044C27.7302 31.007 28.1918 30.8707 28.662 30.9205C29.6328 31.0233 30.3389 31.8964 30.2363 32.8676C30.2046 33.1672 30.0959 33.4504 29.9258 33.694L26.7065 32.6835ZM31.2877 34.1212C31.4633 33.7782 31.5766 33.4034 31.6178 33.0138C31.8019 31.281 30.5409 29.7224 28.8083 29.539C27.969 29.4501 27.1453 29.6934 26.489 30.2241C25.8569 30.7352 25.4537 31.4542 25.3455 32.2564L21.2747 30.9789L22.4523 29.3607C22.6779 29.0506 22.6096 28.616 22.2994 28.3904C21.9891 28.1646 21.5547 28.2332 21.329 28.5433L19.876 30.54L9.28874 27.2174C9.54287 26.9097 9.75306 26.5574 9.90407 26.165C12.7652 18.7283 18.3509 12.8511 25.6323 9.61577C25.8856 9.50329 26.1198 9.36559 26.3349 9.20817L27.0451 11.0508C26.4866 11.13 25.9576 11.3586 25.5075 11.7226C24.8512 12.2531 24.4409 13.0077 24.3521 13.8469C24.3372 13.9875 24.3316 14.1275 24.3351 14.2665C24.3527 14.9573 24.5953 15.6198 25.037 16.1662C25.5678 16.8226 26.3222 17.2329 27.1616 17.3218C27.9151 17.4015 28.6544 17.2073 29.2606 16.7981L32.5578 25.3516L31.7763 25.6988C31.5117 25.8164 31.3569 26.079 31.3638 26.3515C31.3661 26.44 31.3854 26.5296 31.4236 26.6156C31.5793 26.9662 31.9899 27.1241 32.3405 26.9683L33.0581 26.6495L36.5785 35.7818L31.2877 34.1212Z"/>
</mask>
<path d="M38.2514 37.3511C38.4338 37.1566 38.4891 36.8746 38.3929 36.626L27.3757 8.04598C27.9629 7.0284 28.0741 5.75382 27.5618 4.60043C26.711 2.6859 24.4613 1.82031 22.5466 2.67099C18.032 4.67709 14.0172 7.50983 10.6139 11.0908C7.21061 14.6717 4.58555 18.8253 2.81161 23.4361C2.62743 23.9149 2.54701 24.4084 2.55931 24.892C2.59731 26.3832 3.51698 27.7786 4.99357 28.3466C5.98704 28.7287 7.04416 28.6634 7.94279 28.2508L37.5368 37.5385C37.7912 37.6184 38.0689 37.5456 38.2514 37.3511ZM27.5695 12.4109L28.737 15.4398C28.3638 15.8084 27.8419 15.9967 27.3078 15.9402C26.8375 15.8903 26.4147 15.6604 26.1173 15.2927C25.82 14.925 25.6838 14.4637 25.7334 13.9931C25.7832 13.5229 26.0131 13.1001 26.3809 12.8028C26.7198 12.5288 27.1382 12.3919 27.5695 12.4109ZM5.49249 27.05C4.25202 26.5727 3.63107 25.1751 4.10843 23.9349C7.56498 14.9503 14.3136 7.84957 23.1108 3.94063C23.6991 3.6792 24.354 3.66255 24.955 3.89372C25.5558 4.1249 26.0307 4.57621 26.2921 5.16454C26.5535 5.75288 26.5702 6.40783 26.339 7.0087C26.1078 7.60956 25.6565 8.08443 25.0682 8.34585C21.3026 10.019 17.9539 12.3818 15.1152 15.3687C12.2765 18.3556 10.087 21.82 8.60739 25.6658C8.13025 26.9063 6.73282 27.5272 5.49249 27.05ZM26.7065 32.6835C26.7064 32.6206 26.7085 32.5576 26.7151 32.4947C26.7649 32.0245 26.9948 31.6017 27.3625 31.3044C27.7302 31.007 28.1918 30.8707 28.662 30.9205C29.6328 31.0233 30.3389 31.8964 30.2363 32.8676C30.2046 33.1672 30.0959 33.4504 29.9258 33.694L26.7065 32.6835ZM31.2877 34.1212C31.4633 33.7782 31.5766 33.4034 31.6178 33.0138C31.8019 31.281 30.5409 29.7224 28.8083 29.539C27.969 29.4501 27.1453 29.6934 26.489 30.2241C25.8569 30.7352 25.4537 31.4542 25.3455 32.2564L21.2747 30.9789L22.4523 29.3607C22.6779 29.0506 22.6096 28.616 22.2994 28.3904C21.9891 28.1646 21.5547 28.2332 21.329 28.5433L19.876 30.54L9.28874 27.2174C9.54287 26.9097 9.75306 26.5574 9.90407 26.165C12.7652 18.7283 18.3509 12.8511 25.6323 9.61577C25.8856 9.50329 26.1198 9.36559 26.3349 9.20817L27.0451 11.0508C26.4866 11.13 25.9576 11.3586 25.5075 11.7226C24.8512 12.2531 24.4409 13.0077 24.3521 13.8469C24.3372 13.9875 24.3316 14.1275 24.3351 14.2665C24.3527 14.9573 24.5953 15.6198 25.037 16.1662C25.5678 16.8226 26.3222 17.2329 27.1616 17.3218C27.9151 17.4015 28.6544 17.2073 29.2606 16.7981L32.5578 25.3516L31.7763 25.6988C31.5117 25.8164 31.3569 26.079 31.3638 26.3515C31.3661 26.44 31.3854 26.5296 31.4236 26.6156C31.5793 26.9662 31.9899 27.1241 32.3405 26.9683L33.0581 26.6495L36.5785 35.7818L31.2877 34.1212Z" fill="black"/>
<path d="M38.2514 37.3511L40.4392 39.4037L40.4396 39.4033L38.2514 37.3511ZM38.3929 36.626L35.5937 37.705L35.5952 37.709L38.3929 36.626ZM27.3757 8.04598L24.7773 6.54648L24.061 7.78779L24.5765 9.12505L27.3757 8.04598ZM27.5618 4.60043L30.3035 3.38261L30.3033 3.3822L27.5618 4.60043ZM22.5466 2.67099L21.3285 -0.070597L21.3284 -0.0705346L22.5466 2.67099ZM2.81161 23.4361L0.0116875 22.3588L0.0116016 22.3591L2.81161 23.4361ZM2.55931 24.892L-0.439717 24.9683L-0.439714 24.9684L2.55931 24.892ZM4.99357 28.3466L6.0707 25.5466L6.07063 25.5466L4.99357 28.3466ZM7.94279 28.2508L8.84111 25.3884L7.73991 25.0428L6.69103 25.5244L7.94279 28.2508ZM37.5368 37.5385L36.6385 40.4009L36.6386 40.4009L37.5368 37.5385ZM27.5695 12.4109L30.3687 11.3319L29.6626 9.50008L27.7013 9.41378L27.5695 12.4109ZM28.737 15.4398L30.845 17.5743L32.2428 16.1939L31.5362 14.3609L28.737 15.4398ZM27.3078 15.9402L26.9914 18.9235L26.992 18.9235L27.3078 15.9402ZM25.7334 13.9931L22.7501 13.6771L22.75 13.6783L25.7334 13.9931ZM26.3809 12.8028L28.2671 15.1356L28.2671 15.1356L26.3809 12.8028ZM5.49249 27.05L6.56988 24.2501L6.56963 24.25L5.49249 27.05ZM4.10843 23.9349L6.90819 25.0125L6.90837 25.0121L4.10843 23.9349ZM23.1108 3.94063L24.329 6.68217L24.329 6.68217L23.1108 3.94063ZM24.955 3.89372L26.0322 1.0938L26.0321 1.09375L24.955 3.89372ZM25.0682 8.34585L26.2863 11.0874L26.2864 11.0874L25.0682 8.34585ZM8.60739 25.6658L5.80746 24.5886L5.80738 24.5888L8.60739 25.6658ZM26.7065 32.6835L23.7065 32.6869L23.709 34.887L25.8081 35.5458L26.7065 32.6835ZM26.7151 32.4947L23.7317 32.1786L23.7314 32.1821L26.7151 32.4947ZM27.3625 31.3044L29.2486 33.6373L29.2489 33.6371L27.3625 31.3044ZM28.662 30.9205L28.978 27.9371L28.9776 27.9371L28.662 30.9205ZM30.2363 32.8676L33.2196 33.1833L33.2197 33.1828L30.2363 32.8676ZM29.9258 33.694L29.0274 36.5563L31.1261 37.215L32.3854 35.4116L29.9258 33.694ZM31.2877 34.1212L28.6174 32.754L26.997 35.9188L30.3894 36.9836L31.2877 34.1212ZM31.6178 33.0138L28.6346 32.697L28.6345 32.6981L31.6178 33.0138ZM28.8083 29.539L28.4924 32.5223L28.4924 32.5223L28.8083 29.539ZM26.489 30.2241L24.6028 27.8912L24.6027 27.8913L26.489 30.2241ZM25.3455 32.2564L24.4472 35.1188L27.8431 36.1845L28.3186 32.6572L25.3455 32.2564ZM21.2747 30.9789L18.849 29.2137L16.3915 32.5907L20.3764 33.8413L21.2747 30.9789ZM22.4523 29.3607L24.878 31.1259L24.8784 31.1253L22.4523 29.3607ZM22.2994 28.3904L20.5343 30.8162L20.5347 30.8164L22.2994 28.3904ZM21.329 28.5433L18.9034 26.778L18.9033 26.7782L21.329 28.5433ZM19.876 30.54L18.9777 33.4024L21.0338 34.0477L22.3018 32.3052L19.876 30.54ZM9.28874 27.2174L6.9755 25.3072L4.1368 28.7449L8.39045 30.0798L9.28874 27.2174ZM9.90407 26.165L12.704 27.2423L12.704 27.2422L9.90407 26.165ZM25.6323 9.61577L24.4147 6.87399L24.4142 6.87421L25.6323 9.61577ZM26.3349 9.20817L29.1341 8.12913L27.7245 4.47245L24.5625 6.78764L26.3349 9.20817ZM27.0451 11.0508L27.4662 14.0211L31.2012 13.4917L29.8444 9.97176L27.0451 11.0508ZM25.5075 11.7226L27.3936 14.0555L27.3938 14.0554L25.5075 11.7226ZM24.3521 13.8469L27.3353 14.1632L27.3354 14.1626L24.3521 13.8469ZM25.037 16.1662L22.7041 18.0522L22.7042 18.0524L25.037 16.1662ZM27.1616 17.3218L26.8455 20.3051L26.846 20.3051L27.1616 17.3218ZM29.2606 16.7981L32.0598 15.7191L30.7048 12.2038L27.5822 14.3116L29.2606 16.7981ZM32.5578 25.3516L33.7759 28.0931L36.3833 26.9347L35.357 24.2725L32.5578 25.3516ZM31.7763 25.6988L30.5582 22.9572L30.5577 22.9575L31.7763 25.6988ZM31.4236 26.6156L28.6816 27.8327L28.682 27.8336L31.4236 26.6156ZM32.3405 26.9683L33.5585 29.71L33.5585 29.7099L32.3405 26.9683ZM33.0581 26.6495L35.8573 25.5704L34.7227 22.6272L31.8401 23.9079L33.0581 26.6495ZM36.5785 35.7818L35.6801 38.6441L41.6151 40.5068L39.3777 34.7027L36.5785 35.7818ZM40.4396 39.4033C41.4075 38.3713 41.7049 36.8715 41.1906 35.543L35.5952 37.709C35.2734 36.8777 35.4601 35.9419 36.0632 35.2989L40.4396 39.4033ZM41.1921 35.5469L30.1749 6.96692L24.5765 9.12505L35.5937 37.705L41.1921 35.5469ZM29.9741 9.54549C31.0177 7.73709 31.2235 5.45394 30.3035 3.38261L24.8201 5.81824C24.9246 6.05369 24.9082 6.31971 24.7773 6.54648L29.9741 9.54549ZM30.3033 3.3822C28.7798 -0.0463313 24.7573 -1.59398 21.3285 -0.070597L23.7647 5.41257C24.1652 5.23461 24.6423 5.41814 24.8202 5.81865L30.3033 3.3822ZM21.3284 -0.0705346C16.4539 2.09551 12.1141 5.15754 8.43936 9.02409L12.7885 13.1575C15.9204 9.86212 19.6102 7.25866 23.7648 5.41251L21.3284 -0.0705346ZM8.43936 9.02409C4.76464 12.8906 1.92708 17.3803 0.0116875 22.3588L5.61154 24.5133C7.24401 20.2702 9.65658 16.4529 12.7885 13.1575L8.43936 9.02409ZM0.0116016 22.3591C-0.316667 23.2125 -0.46184 24.0984 -0.439717 24.9683L5.55834 24.8157C5.55587 24.7184 5.57153 24.6173 5.61162 24.5131L0.0116016 22.3591ZM-0.439714 24.9684C-0.371981 27.6266 1.26505 30.1266 3.91651 31.1465L6.07063 25.5466C5.76891 25.4305 5.5666 25.1398 5.55834 24.8156L-0.439714 24.9684ZM3.91643 31.1465C5.69896 31.8323 7.59559 31.7113 9.19455 30.9771L6.69103 25.5244C6.49273 25.6154 6.27511 25.6252 6.0707 25.5466L3.91643 31.1465ZM7.04448 31.1131L36.6385 40.4009L38.4351 34.6762L8.84111 25.3884L7.04448 31.1131ZM36.6386 40.4009C37.9912 40.8254 39.4684 40.4386 40.4392 39.4037L36.0635 35.2985C36.6695 34.6526 37.5912 34.4114 38.435 34.6761L36.6386 40.4009ZM24.7702 13.4898L25.9377 16.5188L31.5362 14.3609L30.3687 11.3319L24.7702 13.4898ZM26.6289 13.3054C26.8878 13.0496 27.2525 12.9176 27.6235 12.9569L26.992 18.9235C28.4312 19.0759 29.8397 18.5672 30.845 17.5743L26.6289 13.3054ZM27.6242 12.9569C27.9445 12.9909 28.2471 13.1553 28.45 13.4063L23.7846 17.1791C24.5823 18.1655 25.7305 18.7897 26.9914 18.9235L27.6242 12.9569ZM28.45 13.4063C28.6535 13.6579 28.7506 13.9886 28.7169 14.3079L22.75 13.6783C22.617 14.9388 22.9864 16.192 23.7846 17.1791L28.45 13.4063ZM28.7167 14.3091C28.6828 14.6298 28.5182 14.9326 28.2671 15.1356L24.4947 10.4699C23.508 11.2676 22.8837 12.416 22.7501 13.6771L28.7167 14.3091ZM28.2671 15.1356C28.0366 15.322 27.7372 15.4212 27.4376 15.408L27.7013 9.41378C26.5392 9.36264 25.403 9.73554 24.4947 10.4699L28.2671 15.1356ZM6.56963 24.25C6.87549 24.3677 7.02617 24.706 6.90819 25.0125L1.30866 22.8573C0.235977 25.6442 1.62855 28.7778 4.41534 29.8499L6.56963 24.25ZM6.90837 25.0121C10.0792 16.7701 16.2588 10.2681 24.329 6.68217L21.8926 1.19908C12.3683 5.4311 5.05074 13.1305 1.30849 22.8577L6.90837 25.0121ZM24.329 6.68217C24.1902 6.74385 24.0194 6.74814 23.8778 6.69369L26.0321 1.09375C24.6887 0.576952 23.2081 0.614556 21.8926 1.19908L24.329 6.68217ZM23.8777 6.69364C23.736 6.63913 23.6122 6.52146 23.5506 6.38272L29.0337 3.94637C28.4492 2.63095 27.3756 1.61067 26.0322 1.0938L23.8777 6.69364ZM23.5506 6.38272C23.4889 6.24394 23.4846 6.0732 23.5391 5.93146L29.1389 8.08593C29.6558 6.74246 29.6182 5.26183 29.0337 3.94637L23.5506 6.38272ZM23.5391 5.93146C23.5936 5.78976 23.7113 5.66596 23.85 5.60431L26.2864 11.0874C27.6018 10.5029 28.6221 9.42936 29.1389 8.08593L23.5391 5.93146ZM23.8501 5.60428C19.7244 7.43739 16.0508 10.0296 12.9406 13.302L17.2898 17.4354C19.8571 14.7341 22.8807 12.6006 26.2863 11.0874L23.8501 5.60428ZM12.9406 13.302C9.8305 16.5745 7.42852 20.3751 5.80746 24.5886L11.4073 26.743C12.7455 23.2649 14.7225 20.1367 17.2898 17.4354L12.9406 13.302ZM5.80738 24.5888C5.92508 24.2828 6.26365 24.1323 6.56988 24.2501L4.41509 29.8498C7.20199 30.9222 10.3354 29.5298 11.4074 26.7428L5.80738 24.5888ZM29.7065 32.6802C29.7065 32.6813 29.7065 32.6939 29.7057 32.7147C29.7048 32.7356 29.7029 32.7673 29.6987 32.8072L23.7314 32.1821C23.7101 32.3854 23.7064 32.5612 23.7065 32.6869L29.7065 32.6802ZM29.6984 32.8107C29.6644 33.1315 29.4997 33.4343 29.2486 33.6373L25.4764 28.9715C24.4899 29.7691 23.8654 30.9174 23.7317 32.1786L29.6984 32.8107ZM29.2489 33.6371C28.9978 33.8402 28.6672 33.9378 28.3464 33.9038L28.9776 27.9371C27.7164 27.8037 26.4627 28.1739 25.4761 28.9717L29.2489 33.6371ZM28.3461 33.9038C27.6691 33.8321 27.1815 33.2282 27.2529 32.5524L33.2197 33.1828C33.4963 30.5647 31.5966 28.2145 28.978 27.9371L28.3461 33.9038ZM27.253 32.5518C27.2762 32.3325 27.3548 32.1359 27.4662 31.9764L32.3854 35.4116C32.837 34.765 33.133 34.0018 33.2196 33.1833L27.253 32.5518ZM30.8242 30.8317L27.6049 29.8212L25.8081 35.5458L29.0274 36.5563L30.8242 30.8317ZM33.9581 35.4885C34.2993 34.8219 34.5206 34.0911 34.6012 33.3295L28.6345 32.6981C28.6326 32.7157 28.6274 32.7345 28.6174 32.754L33.9581 35.4885ZM34.601 33.3307C34.9603 29.9484 32.5033 26.9134 29.1241 26.5556L28.4924 32.5223C28.5335 32.5266 28.5685 32.544 28.5991 32.5818C28.6296 32.6195 28.6389 32.6568 28.6346 32.697L34.601 33.3307ZM29.1241 26.5556C27.4936 26.383 25.8778 26.8603 24.6028 27.8912L28.3752 32.5569C28.3989 32.5378 28.4172 32.5301 28.4299 32.5263C28.4427 32.5225 28.4622 32.5191 28.4924 32.5223L29.1241 26.5556ZM24.6027 27.8913C23.374 28.8848 22.5827 30.2955 22.3724 31.8556L28.3186 32.6572C28.3224 32.6295 28.3296 32.6124 28.3359 32.6012C28.3421 32.5901 28.3531 32.5748 28.3753 32.5569L24.6027 27.8913ZM26.2438 29.3941L22.173 28.1165L20.3764 33.8413L24.4472 35.1188L26.2438 29.3941ZM23.7004 32.7441L24.878 31.1259L20.0266 27.5955L18.849 29.2137L23.7004 32.7441ZM24.8784 31.1253C26.0774 29.4768 25.7157 27.1657 24.064 25.9643L20.5347 30.8164C19.5034 30.0664 19.2783 28.6243 20.0262 27.5961L24.8784 31.1253ZM24.0644 25.9645C22.4144 24.764 20.1039 25.1285 18.9034 26.778L23.7547 30.3086C23.0056 31.3379 21.5639 31.5653 20.5343 30.8162L24.0644 25.9645ZM18.9033 26.7782L17.4503 28.7749L22.3018 32.3052L23.7548 30.3085L18.9033 26.7782ZM20.7743 27.6777L10.187 24.3551L8.39045 30.0798L18.9777 33.4024L20.7743 27.6777ZM11.602 29.1276C12.0557 28.5782 12.4331 27.9462 12.704 27.2423L7.10419 25.0876C7.07302 25.1686 7.03007 25.2411 6.9755 25.3072L11.602 29.1276ZM12.704 27.2422C15.2794 20.5481 20.2961 15.2696 26.8505 12.3573L24.4142 6.87421C16.4056 10.4326 10.2509 16.9085 7.10414 25.0877L12.704 27.2422ZM26.85 12.3575C27.3069 12.1546 27.7264 11.9075 28.1072 11.6287L24.5625 6.78764C24.5133 6.82368 24.4642 6.85199 24.4147 6.87399L26.85 12.3575ZM23.5356 10.2872L24.2459 12.1298L29.8444 9.97176L29.1341 8.12913L23.5356 10.2872ZM26.6241 8.08049C25.5263 8.23609 24.4915 8.68612 23.6213 9.38974L27.3938 14.0554C27.4104 14.042 27.4239 14.0346 27.434 14.0302C27.4441 14.0258 27.4545 14.0228 27.4662 14.0211L26.6241 8.08049ZM23.6215 9.38957C22.3462 10.4205 21.5412 11.9008 21.3687 13.5313L27.3354 14.1626C27.3386 14.1324 27.346 14.114 27.3524 14.1024C27.3587 14.0907 27.3701 14.0746 27.3936 14.0555L23.6215 9.38957ZM21.3688 13.5306C21.3402 13.8006 21.3292 14.0716 21.3361 14.3428L27.3341 14.1902C27.3339 14.1833 27.3342 14.1745 27.3353 14.1632L21.3688 13.5306ZM21.3361 14.3428C21.3705 15.6961 21.8487 16.9942 22.7041 18.0522L27.37 14.2801C27.3538 14.2601 27.346 14.2441 27.3418 14.2328C27.3376 14.2213 27.3346 14.2079 27.3341 14.1902L21.3361 14.3428ZM22.7042 18.0524C23.7352 19.3276 25.2152 20.1324 26.8455 20.3051L27.4776 14.3385C27.4471 14.3353 27.4287 14.3277 27.417 14.3214C27.4053 14.3151 27.389 14.3037 27.3699 14.2799L22.7042 18.0524ZM26.846 20.3051C28.3168 20.4607 29.7599 20.0806 30.939 19.2847L27.5822 14.3116C27.549 14.334 27.5134 14.3423 27.4772 14.3384L26.846 20.3051ZM26.4614 17.8772L29.7586 26.4306L35.357 24.2725L32.0598 15.7191L26.4614 17.8772ZM31.3397 22.61L30.5582 22.9572L32.9944 28.4404L33.7759 28.0931L31.3397 22.61ZM30.5577 22.9575C29.1468 23.5847 28.3281 24.9843 28.3648 26.4278L34.3628 26.2752C34.3857 27.1738 33.8767 28.0482 32.995 28.4401L30.5577 22.9575ZM28.3648 26.4278C28.3769 26.9042 28.4815 27.3819 28.6816 27.8327L34.1657 25.3986C34.2894 25.6773 34.3552 25.9758 34.3628 26.2752L28.3648 26.4278ZM28.682 27.8336C29.5106 29.6988 31.6942 30.5382 33.5585 29.71L31.1225 24.2267C32.2856 23.71 33.6481 24.2336 34.1652 25.3976L28.682 27.8336ZM33.5585 29.7099L34.2761 29.3911L31.8401 23.9079L31.1224 24.2267L33.5585 29.7099ZM30.2589 27.7286L33.7793 36.8608L39.3777 34.7027L35.8573 25.5704L30.2589 27.7286ZM37.4768 32.9194L32.1861 31.2589L30.3894 36.9836L35.6801 38.6441L37.4768 32.9194Z" fill="#0A191E" mask="url(#path-1-inside-1_14_889)"/>
<path d="M19.13 9.96169C19.3258 9.82385 19.4283 9.60339 19.424 9.3809C19.4214 9.25077 19.3823 9.11996 19.3038 9.00458C19.3038 9.00457 19.3038 9.00456 19.3038 9.00455C19.3017 9.00152 19.2997 8.9985 19.2975 8.99549C19.0791 8.68486 18.6514 8.60832 18.3385 8.82129C18.3373 8.82213 18.3361 8.82298 18.3348 8.82382C18.3338 8.82454 18.3327 8.82526 18.3317 8.82599C18.3314 8.82619 18.3311 8.82639 18.3308 8.82659C18.3233 8.83182 18.3158 8.83717 18.3085 8.84265C18.1228 8.98174 18.0255 9.19813 18.031 9.41633C18.0343 9.54484 18.0732 9.67389 18.1508 9.78802C18.1529 9.79111 18.155 9.79419 18.1572 9.79724L18.7192 9.4021L18.724 9.3987L18.725 9.39805L18.7251 9.39797L18.7268 9.39677L18.729 9.39523L18.7304 9.39419L18.7319 9.3932L18.7325 9.39276L19.297 8.99588L18.7342 9.39157L18.7336 9.39201L18.7305 9.39422L18.729 9.39526L18.7268 9.3968L18.7251 9.398L18.725 9.39808L18.7241 9.3987L18.7192 9.40213L18.1572 9.7973C18.3747 10.1067 18.8011 10.1854 19.115 9.97214L19.1183 9.9698L19.1262 9.96436L19.13 9.96169Z" fill="black" stroke="#0A191E" stroke-width="3"/>
<mask id="path-4-inside-2_14_889" fill="white">
<path d="M20.8128 8.87311C21.982 8.16625 23.2082 7.52639 24.4572 6.97134C24.8079 6.8156 24.9656 6.40491 24.8099 6.05457C24.6542 5.70396 24.2437 5.54611 23.8931 5.70191C22.5911 6.28047 21.3129 6.94751 20.0941 7.68432C19.8728 7.81815 19.7528 8.05577 19.7589 8.297C19.7619 8.41366 19.7943 8.53117 19.859 8.63806C20.0575 8.96632 20.4845 9.07164 20.8128 8.87311Z"/>
</mask>
<path d="M20.8128 8.87311C21.982 8.16625 23.2082 7.52639 24.4572 6.97134C24.8079 6.8156 24.9656 6.40491 24.8099 6.05457C24.6542 5.70396 24.2437 5.54611 23.8931 5.70191C22.5911 6.28047 21.3129 6.94751 20.0941 7.68432C19.8728 7.81815 19.7528 8.05577 19.7589 8.297C19.7619 8.41366 19.7943 8.53117 19.859 8.63806C20.0575 8.96632 20.4845 9.07164 20.8128 8.87311Z" fill="black"/>
<path d="M20.8128 8.87311L19.2607 6.3058L19.2603 6.30605L20.8128 8.87311ZM24.4572 6.97134L23.2396 4.22956L23.239 4.22985L24.4572 6.97134ZM24.8099 6.05457L22.0682 7.27238L22.0685 7.27314L24.8099 6.05457ZM23.8931 5.70191L25.1113 8.44345L25.1116 8.44333L23.8931 5.70191ZM20.0941 7.68432L18.542 5.11702L18.5417 5.11719L20.0941 7.68432ZM19.859 8.63806L17.2917 10.1903L17.2919 10.1905L19.859 8.63806ZM22.3649 11.4404C23.4265 10.7986 24.5412 10.2169 25.6755 9.71284L23.239 4.22985C21.8752 4.83588 20.5375 5.53392 19.2607 6.3058L22.3649 11.4404ZM25.6749 9.71313C27.5415 8.88418 28.3796 6.69943 27.5513 4.836L22.0685 7.27314C21.5517 6.11038 22.0744 4.74703 23.2396 4.22956L25.6749 9.71313ZM27.5516 4.83676C26.723 2.97124 24.5391 2.13185 22.6747 2.9605L25.1116 8.44333C23.9483 8.96037 22.5854 8.43668 22.0682 7.27238L27.5516 4.83676ZM22.675 2.96037C21.258 3.58997 19.8683 4.3152 18.542 5.11702L21.6462 10.2516C22.7574 9.57982 23.9241 8.97098 25.1113 8.44345L22.675 2.96037ZM18.5417 5.11719C17.3622 5.83047 16.7275 7.09825 16.7599 8.37328L22.758 8.22073C22.7781 9.0133 22.3834 9.80582 21.6465 10.2515L18.5417 5.11719ZM16.7599 8.37328C16.7758 8.99716 16.9503 9.62551 17.2917 10.1903L22.4262 7.08584C22.6384 7.43682 22.748 7.83016 22.758 8.22073L16.7599 8.37328ZM17.2919 10.1905C18.3473 11.9356 20.6183 12.4967 22.3653 11.4402L19.2603 6.30605C20.3508 5.64656 21.7677 5.99708 22.426 7.08556L17.2919 10.1905Z" fill="#0A191E" mask="url(#path-4-inside-2_14_889)"/>
<mask id="path-6-inside-3_14_889" fill="white">
<path d="M29.2183 23.9556C29.233 23.8175 29.2386 23.6775 29.235 23.5394C29.1949 21.962 27.9799 20.647 26.4088 20.4807C24.6763 20.2973 23.1174 21.5576 22.934 23.2901C22.9193 23.4282 22.9137 23.5683 22.9172 23.7063C22.9573 25.2837 24.1723 26.5987 25.7435 26.765C27.4761 26.9483 29.0348 25.6881 29.2183 23.9556ZM25.8898 25.3836C25.0093 25.2903 24.3285 24.5541 24.306 23.671C24.3041 23.5933 24.3072 23.5144 24.3155 23.4364C24.4183 22.4656 25.2918 21.7595 26.2626 21.8622C27.143 21.9555 27.8237 22.6916 27.8462 23.5747C27.8482 23.6524 27.845 23.7313 27.8367 23.8093C27.7339 24.7801 26.8605 25.4863 25.8898 25.3836Z"/>
</mask>
<path d="M29.2183 23.9556C29.233 23.8175 29.2386 23.6775 29.235 23.5394C29.1949 21.962 27.9799 20.647 26.4088 20.4807C24.6763 20.2973 23.1174 21.5576 22.934 23.2901C22.9193 23.4282 22.9137 23.5683 22.9172 23.7063C22.9573 25.2837 24.1723 26.5987 25.7435 26.765C27.4761 26.9483 29.0348 25.6881 29.2183 23.9556ZM25.8898 25.3836C25.0093 25.2903 24.3285 24.5541 24.306 23.671C24.3041 23.5933 24.3072 23.5144 24.3155 23.4364C24.4183 22.4656 25.2918 21.7595 26.2626 21.8622C27.143 21.9555 27.8237 22.6916 27.8462 23.5747C27.8482 23.6524 27.845 23.7313 27.8367 23.8093C27.7339 24.7801 26.8605 25.4863 25.8898 25.3836Z" fill="black"/>
<path d="M29.2183 23.9556L26.2351 23.6382L26.2349 23.6397L29.2183 23.9556ZM26.4088 20.4807L26.093 23.4641L26.0931 23.4641L26.4088 20.4807ZM22.934 23.2901L25.9171 23.6076L25.9173 23.606L22.934 23.2901ZM25.7435 26.765L25.4277 29.7483L25.4278 29.7483L25.7435 26.765ZM25.8898 25.3836L25.5739 28.3669L25.574 28.3669L25.8898 25.3836ZM24.3155 23.4364L27.2986 23.754L27.2988 23.7523L24.3155 23.4364ZM26.2626 21.8622L26.5785 18.8789L26.5783 18.8789L26.2626 21.8622ZM27.8367 23.8093L24.8536 23.4917L24.8535 23.4931L27.8367 23.8093ZM32.2014 24.273C32.23 24.004 32.2409 23.7325 32.2341 23.4631L26.236 23.6157C26.2362 23.6224 26.2359 23.6309 26.2351 23.6382L32.2014 24.273ZM32.2341 23.4631C32.1556 20.3779 29.7901 17.8218 26.7246 17.4974L26.0931 23.4641C26.126 23.4675 26.1606 23.4822 26.1926 23.5168C26.2246 23.5514 26.2353 23.5856 26.236 23.6157L32.2341 23.4631ZM26.7247 17.4974C23.3446 17.1396 20.3085 19.5939 19.9507 22.9743L25.9173 23.606C25.9216 23.5653 25.9387 23.5305 25.9766 23.4998C26.0145 23.4692 26.0522 23.4597 26.093 23.4641L26.7247 17.4974ZM19.9508 22.9727C19.9222 23.2417 19.9113 23.5132 19.9182 23.7826L25.9162 23.63C25.9161 23.6233 25.9164 23.6148 25.9171 23.6076L19.9508 22.9727ZM19.9182 23.7826C19.9966 26.8679 22.3623 29.4238 25.4277 29.7483L26.0594 23.7817C26.0263 23.7782 25.9916 23.7635 25.9596 23.7288C25.9276 23.6942 25.917 23.66 25.9162 23.63L19.9182 23.7826ZM25.4278 29.7483C28.8078 30.106 31.8437 27.6517 32.2016 24.2714L26.2349 23.6397C26.2306 23.6804 26.2135 23.7152 26.1756 23.7459C26.1377 23.7765 26.1 23.786 26.0593 23.7817L25.4278 29.7483ZM26.2057 22.4002C26.8172 22.465 27.2891 22.9677 27.3051 23.5947L21.307 23.7472C21.3679 26.1405 23.2014 28.1157 25.5739 28.3669L26.2057 22.4002ZM27.3051 23.5947C27.3064 23.6479 27.3043 23.7005 27.2986 23.754L21.3324 23.1188C21.3101 23.3283 21.3017 23.5388 21.307 23.7472L27.3051 23.5947ZM27.2988 23.7523C27.2271 24.4294 26.6233 24.9171 25.9469 24.8456L26.5783 18.8789C23.9602 18.6018 21.6095 20.5017 21.3322 23.1205L27.2988 23.7523ZM25.9467 24.8456C25.335 24.7808 24.8631 24.2779 24.8472 23.651L30.8452 23.4985C30.7844 21.1053 28.951 19.1302 26.5785 18.8789L25.9467 24.8456ZM24.8472 23.651C24.8458 23.5978 24.8479 23.5452 24.8536 23.4917L30.8199 24.1269C30.8422 23.9175 30.8505 23.7069 30.8452 23.4985L24.8472 23.651ZM24.8535 23.4931C24.9251 22.8168 25.5284 22.3285 26.2055 22.4002L25.574 28.3669C28.1926 28.644 30.5426 26.7433 30.82 24.1254L24.8535 23.4931Z" fill="#0A191E" mask="url(#path-6-inside-3_14_889)"/>
<mask id="path-8-inside-4_14_889" fill="white">
<path d="M20.5762 23.9946C20.5909 23.8564 20.5965 23.7164 20.593 23.5784C20.5528 22.001 19.3378 20.686 17.7667 20.5197C16.9274 20.4308 16.1038 20.6741 15.4474 21.2047C14.791 21.7353 14.3807 22.4898 14.2918 23.3291C14.2771 23.4672 14.2716 23.6071 14.2751 23.7451C14.3152 25.3225 15.5302 26.6376 17.1015 26.8039C18.8339 26.9874 20.3926 25.7271 20.5762 23.9946ZM17.2476 25.4225C16.3672 25.3293 15.6863 24.593 15.6639 23.7099C15.6619 23.6323 15.6651 23.5534 15.6733 23.4755C15.7232 23.0052 15.9532 22.5825 16.3209 22.2851C16.6886 21.9877 17.1501 21.8514 17.6205 21.9012C18.5008 21.9944 19.1817 22.7307 19.2041 23.6137C19.2061 23.6914 19.203 23.7703 19.1947 23.8483C19.0919 24.819 18.2184 25.5252 17.2476 25.4225Z"/>
</mask>
<path d="M20.5762 23.9946C20.5909 23.8564 20.5965 23.7164 20.593 23.5784C20.5528 22.001 19.3378 20.686 17.7667 20.5197C16.9274 20.4308 16.1038 20.6741 15.4474 21.2047C14.791 21.7353 14.3807 22.4898 14.2918 23.3291C14.2771 23.4672 14.2716 23.6071 14.2751 23.7451C14.3152 25.3225 15.5302 26.6376 17.1015 26.8039C18.8339 26.9874 20.3926 25.7271 20.5762 23.9946ZM17.2476 25.4225C16.3672 25.3293 15.6863 24.593 15.6639 23.7099C15.6619 23.6323 15.6651 23.5534 15.6733 23.4755C15.7232 23.0052 15.9532 22.5825 16.3209 22.2851C16.6886 21.9877 17.1501 21.8514 17.6205 21.9012C18.5008 21.9944 19.1817 22.7307 19.2041 23.6137C19.2061 23.6914 19.203 23.7703 19.1947 23.8483C19.0919 24.819 18.2184 25.5252 17.2476 25.4225Z" fill="black"/>
<path d="M20.5762 23.9946L17.593 23.6773L17.5929 23.6785L20.5762 23.9946ZM17.7667 20.5197L17.4506 23.503L17.451 23.503L17.7667 20.5197ZM15.4474 21.2047L17.3334 23.5377L17.3335 23.5377L15.4474 21.2047ZM14.2918 23.3291L17.2751 23.6453L17.2751 23.6452L14.2918 23.3291ZM17.1015 26.8039L17.4174 23.8206L17.4173 23.8206L17.1015 26.8039ZM17.2476 25.4225L16.9317 28.4059L16.9321 28.4059L17.2476 25.4225ZM15.6733 23.4755L12.6901 23.1591L12.69 23.1601L15.6733 23.4755ZM17.6205 21.9012L17.9364 18.9179L17.9364 18.9179L17.6205 21.9012ZM19.1947 23.8483L16.2115 23.5307L16.2114 23.5323L19.1947 23.8483ZM23.5594 24.3118C23.5879 24.043 23.5989 23.7716 23.592 23.5021L17.5939 23.6547C17.5941 23.6613 17.5938 23.6698 17.593 23.6773L23.5594 24.3118ZM23.592 23.5021C23.5135 20.4169 21.148 17.8608 18.0824 17.5364L17.451 23.503C17.4839 23.5065 17.5186 23.5212 17.5506 23.5558C17.5825 23.5904 17.5932 23.6246 17.5939 23.6547L23.592 23.5021ZM18.0827 17.5364C16.452 17.3636 14.8363 17.841 13.5613 18.8718L17.3335 23.5377C17.3572 23.5185 17.3756 23.5107 17.3883 23.507C17.401 23.5032 17.4204 23.4998 17.4506 23.503L18.0827 17.5364ZM13.5613 18.8718C12.2861 19.9027 11.4812 21.3828 11.3085 23.0131L17.2751 23.6452C17.2783 23.6148 17.2858 23.5964 17.2921 23.5847C17.2985 23.573 17.3099 23.5568 17.3334 23.5377L13.5613 18.8718ZM11.3085 23.013C11.28 23.282 11.2692 23.553 11.2761 23.8213L17.2741 23.6688C17.2739 23.6612 17.2743 23.6524 17.2751 23.6453L11.3085 23.013ZM11.2761 23.8213C11.3545 26.9066 13.7201 29.4627 16.7856 29.7872L17.4173 23.8206C17.3843 23.8171 17.3496 23.8024 17.3175 23.7677C17.2856 23.7331 17.2749 23.6989 17.2741 23.6688L11.2761 23.8213ZM16.7855 29.7872C20.1659 30.1453 23.2014 27.6904 23.5595 24.3106L17.5929 23.6785C17.5886 23.7193 17.5713 23.7542 17.5335 23.7849C17.4956 23.8155 17.458 23.8249 17.4174 23.8206L16.7855 29.7872ZM17.5635 22.4392C18.1752 22.504 18.647 23.0068 18.6629 23.6336L12.6649 23.7862C12.7257 26.1792 14.5591 28.1546 16.9317 28.4059L17.5635 22.4392ZM18.6629 23.6336C18.6643 23.6887 18.662 23.7405 18.6567 23.7908L12.69 23.1601C12.6682 23.3662 12.6595 23.576 12.6649 23.7862L18.6629 23.6336ZM18.6566 23.7919C18.6226 24.1124 18.4581 24.4149 18.2073 24.6178L14.4345 19.9524C13.4482 20.75 12.8238 21.898 12.6901 23.1591L18.6566 23.7919ZM18.2073 24.6178C17.9561 24.8209 17.6254 24.9185 17.3045 24.8845L17.9364 18.9179C16.6749 18.7843 15.4211 19.1545 14.4345 19.9524L18.2073 24.6178ZM17.3045 24.8845C16.6929 24.8198 16.221 24.3171 16.2051 23.69L22.2032 23.5375C22.1423 21.1443 20.3087 19.1691 17.9364 18.9179L17.3045 24.8845ZM16.2051 23.69C16.2037 23.6368 16.2058 23.5841 16.2115 23.5307L22.1778 24.1659C22.2001 23.9565 22.2085 23.7459 22.2032 23.5375L16.2051 23.69ZM16.2114 23.5323C16.283 22.8554 16.8866 22.3676 17.5631 22.4392L16.9321 28.4059C19.5502 28.6828 21.9007 26.7826 22.178 24.1642L16.2114 23.5323Z" fill="#0A191E" mask="url(#path-8-inside-4_14_889)"/>
<mask id="path-10-inside-5_14_889" fill="white">
<path d="M23.3364 19.3415L23.5632 17.2001C23.604 16.8188 23.3271 16.4766 22.9456 16.4362C22.5641 16.3957 22.2221 16.6723 22.1817 17.0537L21.955 19.1951C21.9517 19.226 21.9505 19.2566 21.9513 19.2868C21.96 19.6299 22.222 19.9219 22.5725 19.959C22.954 19.9995 23.296 19.723 23.3364 19.3415Z"/>
</mask>
<path d="M23.3364 19.3415L23.5632 17.2001C23.604 16.8188 23.3271 16.4766 22.9456 16.4362C22.5641 16.3957 22.2221 16.6723 22.1817 17.0537L21.955 19.1951C21.9517 19.226 21.9505 19.2566 21.9513 19.2868C21.96 19.6299 22.222 19.9219 22.5725 19.959C22.954 19.9995 23.296 19.723 23.3364 19.3415Z" fill="black"/>
<path d="M23.3364 19.3415L20.3531 19.0256L20.3531 19.0256L23.3364 19.3415ZM23.5632 17.2001L20.5802 16.8808L20.5799 16.8842L23.5632 17.2001ZM22.9456 16.4362L22.6292 19.4195L22.6297 19.4195L22.9456 16.4362ZM22.1817 17.0537L19.1984 16.7378L19.1984 16.7379L22.1817 17.0537ZM21.955 19.1951L24.9379 19.5155L24.9383 19.511L21.955 19.1951ZM22.5725 19.959L22.8895 16.9758L22.8881 16.9756L22.5725 19.959ZM26.3198 19.6574L26.5465 17.516L20.5799 16.8842L20.3531 19.0256L26.3198 19.6574ZM26.5461 17.5194C26.7638 15.4855 25.2882 13.6675 23.2616 13.4529L22.6297 19.4195C21.366 19.2857 20.4441 18.152 20.5802 16.8808L26.5461 17.5194ZM23.262 13.4529C21.2322 13.2376 19.4133 14.709 19.1984 16.7378L25.1651 17.3697C25.031 18.6356 23.896 19.5538 22.6292 19.4195L23.262 13.4529ZM19.1984 16.7379L18.9717 18.8793L24.9383 19.511L25.1651 17.3696L19.1984 16.7379ZM18.9721 18.8748C18.9543 19.0409 18.9482 19.2041 18.9523 19.3631L24.9503 19.2105C24.9528 19.3092 24.9491 19.4111 24.9379 19.5155L18.9721 18.8748ZM18.9523 19.3631C18.9987 21.191 20.389 22.7448 22.257 22.9423L22.8881 16.9756C24.0549 17.099 24.9213 18.0688 24.9503 19.2105L18.9523 19.3631ZM22.2555 22.9422C24.2854 23.1579 26.1049 21.6866 26.3198 19.6574L20.3531 19.0256C20.4872 17.7595 21.6226 16.8411 22.8895 16.9758L22.2555 22.9422Z" fill="#0A191E" mask="url(#path-10-inside-5_14_889)"/>
<path d="M18.7348 17.2391C18.8034 17.3362 18.8516 17.4501 18.8717 17.5754C18.8719 17.5763 18.872 17.5772 18.8721 17.5781M18.8721 17.5781C18.872 17.5772 18.8719 17.5763 18.8717 17.5755L18.8721 17.5781L18.8721 17.5781Z" fill="black" stroke="#0A191E" stroke-width="3"/>
</svg>
