<svg width="40" height="40" viewBox="0 0 40 40" fill="none" xmlns="http://www.w3.org/2000/svg">
<path d="M28.0007 5.23696L28.0052 5.14103C28.0336 4.57295 27.8424 4.04291 27.4678 3.64965C26.9679 3.12471 26.1892 2.89718 25.3766 3.04358L16.6281 4.61896C16.1939 4.08781 15.5782 3.77678 14.9137 3.77678C14.3575 3.77678 13.8054 3.99642 13.3593 4.39478L6.23497 10.7575C5.7004 11.2353 5.40243 11.8976 5.41891 12.5758C5.42288 12.7539 5.45179 12.9293 5.4978 13.1007C5.01942 13.4412 4.66979 13.9979 4.5569 14.6817L3.21876 22.8123L3.12227 22.8095L3.18699 23.003L3.03717 23.9116C2.91632 24.6476 3.09337 25.3593 3.52182 25.8643C3.77211 26.1594 4.095 26.3569 4.4542 26.4664C5.9768 30.1488 9.13886 36.4112 13.0376 36.4112C13.6125 36.4112 14.1811 36.2761 14.7282 36.01C17.0141 34.8965 16.8115 29.6194 16.4119 26.1764L16.4261 26.1758C17.6388 26.1344 18.8164 25.0743 19.1081 23.7617L19.2006 23.3434C19.692 23.2566 20.15 23.0619 20.5246 22.7686L23.0675 20.7744C23.4114 20.5042 23.6696 20.1552 23.8546 19.7722L24.8699 19.6473C26.0162 19.5066 26.9792 18.6923 27.2954 17.6906C29.1846 18.2252 31.8592 18.8602 33.922 18.8602C33.9226 18.8602 33.9226 18.8602 33.9231 18.8602C35.5711 18.8602 36.6352 18.4585 37.1754 17.6322C37.7838 16.7009 37.9438 15.6516 37.651 14.5132C36.7056 10.8409 30.9143 6.97912 28.0007 5.23696ZM35.751 16.7021C35.6812 16.8093 35.3418 17.1595 33.9237 17.1595C33.9231 17.1595 33.9231 17.1595 33.9231 17.1595C31.9613 17.1595 29.2679 16.4898 27.4673 15.9683L27.9048 7.17042C31.0334 9.12545 35.3254 12.3057 36.0035 14.9394C36.1744 15.6039 36.0916 16.1805 35.751 16.7021ZM25.7097 17.0267C25.7069 17.084 25.6916 17.143 25.6706 17.2032C25.5503 17.5431 25.153 17.8995 24.6627 17.9591L24.1321 18.0243C24.081 17.685 23.9698 17.3536 23.7951 17.0483L17.5673 6.17953L25.1037 4.82205L25.6785 4.71879C25.7421 4.70741 25.8045 4.70176 25.8635 4.70176C26.0259 4.70176 26.1609 4.74602 26.2347 4.82324C26.2539 4.84369 26.3124 4.90555 26.305 5.05705L26.296 5.23696L25.7444 16.3321L25.7097 17.0267ZM22.0171 19.4363L21.2413 20.0447L19.6574 21.2869L19.4741 21.4305C19.2743 21.5871 18.9894 21.6672 18.6983 21.679C18.3998 21.691 18.0979 21.6268 17.8686 21.4872C17.8317 21.4646 17.7926 21.4441 17.7596 21.4174L11.751 16.5551L9.40437 14.6563L7.39369 13.0292C7.32499 12.9736 7.27221 12.9112 7.22914 12.8465C7.16386 12.7489 7.12414 12.6434 7.1219 12.5349C7.11736 12.355 7.20533 12.1751 7.36989 12.0281L14.4931 5.66479C14.5788 5.5882 14.6679 5.54331 14.7576 5.51441C14.8098 5.49737 14.8626 5.47922 14.9142 5.47922C15.1009 5.47922 15.2717 5.59728 15.3937 5.81007L15.4846 5.96841L15.9805 6.8344L22.3183 17.8938C22.3773 17.9971 22.4137 18.1123 22.4358 18.232C22.4892 18.5249 22.4375 18.8461 22.2917 19.1071C22.2202 19.2348 22.1288 19.3483 22.0171 19.4363ZM17.4453 23.3946C17.312 23.9973 16.7666 24.4626 16.3682 24.4762L16.1826 24.4824L15.3223 24.512L9.88853 24.6981L5.63743 24.8434L5.0699 24.8627L5.05461 25.6515L5.05294 25.7094V25.6486V24.8627C4.95191 24.8627 4.87756 24.8309 4.82024 24.7634C4.71699 24.6419 4.67894 24.4269 4.7181 24.1885L4.79755 23.7073L4.93718 22.8595L6.23791 14.9582C6.27477 14.7324 6.36846 14.5581 6.48247 14.4815L16.6883 22.7408C16.9255 22.9326 17.1991 23.0791 17.4908 23.1886L17.4453 23.3946ZM13.9824 34.4806C13.6652 34.6349 13.3559 34.7099 13.0375 34.7099C10.6813 34.7099 8.05833 30.461 6.3286 26.522L14.6963 26.2365C15.1429 30.1489 15 33.9852 13.9824 34.4806Z" fill="#010002"/>
</svg>
