<svg width="40" height="40" viewBox="0 0 40 40" fill="none" xmlns="http://www.w3.org/2000/svg">
<path d="M30 15.5953C30 14.1338 29.0691 12.8894 27.7776 12.4379C27.9933 11.9939 28.1149 11.4948 28.1149 10.9674C28.1149 9.12603 26.638 7.628 24.8227 7.628H23.9916C23.2951 7.628 22.7097 7.09876 22.6299 6.39685L22.2436 3H19.6049C18.0344 3 16.5892 3.69699 15.6396 4.91235C15.0199 5.7056 14.6595 6.65675 14.5852 7.68316C13.0516 7.96699 11.8851 9.33117 11.8851 10.9674C11.8851 11.4949 12.0067 11.9939 12.2224 12.4379C10.9308 12.8895 10 14.1338 10 15.5953C10 16.733 10.5642 17.739 11.4233 18.3422L17.4332 38H22.5669L28.5768 18.3423C29.4358 17.7391 30 16.733 30 15.5953ZM13.2922 14.3067H19.7912V12.2559H15.1772C14.4767 12.2559 13.9069 11.6779 13.9069 10.9674C13.9069 10.2568 14.4767 9.67878 15.1772 9.67878H18.0328V7.628H16.6223C16.694 7.09076 16.8953 6.60712 17.2242 6.18609C17.7796 5.47516 18.6696 5.05078 19.6049 5.05078H20.4416L20.6214 6.63187C20.8189 8.36888 22.2678 9.67878 23.9917 9.67878H24.8228C25.5233 9.67878 26.0931 10.2568 26.0931 10.9674C26.0931 11.6779 25.5233 12.2559 24.8228 12.2559H23.3589V14.3067H26.7078C27.4083 14.3067 27.9782 14.8848 27.9782 15.5954C27.9782 16.3059 27.4083 16.8839 26.7078 16.8839H13.2922C12.5917 16.8839 12.0218 16.3059 12.0218 15.5954C12.0218 14.8848 12.5917 14.3067 13.2922 14.3067ZM21.077 35.9492H18.923L13.7212 18.9347H26.2787L21.077 35.9492Z" fill="black"/>
</svg>
