<svg width="32" height="32" viewBox="0 0 32 32" fill="none" xmlns="http://www.w3.org/2000/svg">
<path d="M24.0659 16.7964C24.0531 14.5023 25.1116 12.7707 27.254 11.4955C26.0553 9.81392 24.2444 8.88875 21.8533 8.70747C19.5898 8.53244 17.1158 10.0015 16.2104 10.0015C15.254 10.0015 13.0606 8.76998 11.339 8.76998C7.78108 8.82624 4 11.5517 4 17.0965C4 18.7343 4.30606 20.4284 4.91817 22.1724C5.73433 24.4666 8.68013 30.0926 11.7535 29.9988C13.3603 29.9613 14.4952 28.8799 16.5866 28.8799C18.6142 28.8799 19.6663 29.9988 21.458 29.9988C24.5569 29.9551 27.2221 24.8417 28 22.5412C23.8427 20.6221 24.0659 16.9152 24.0659 16.7964ZM20.457 6.53207C22.1977 4.50671 22.0383 2.66262 21.9872 2C20.4506 2.08752 18.6716 3.02519 17.6578 4.18165C16.542 5.41937 15.8852 6.9509 16.0255 8.67621C17.6897 8.80124 19.2072 7.96358 20.457 6.53207Z" fill="black"/>
</svg>
