<svg width="32" height="32" viewBox="0 0 32 32" fill="none" xmlns="http://www.w3.org/2000/svg">
<path fill-rule="evenodd" clip-rule="evenodd" d="M26.6755 28C27.407 28 28 27.4069 28 26.6754V5.32457C28 4.59286 27.4069 4 26.6755 4H5.32458C4.59287 4 4 4.59295 4 5.32457V26.6753C4 27.4069 4.59287 27.9999 5.32458 27.9999H26.6755V28ZM20.5596 28V18.7059H23.6793L24.1463 15.0838H20.5595V12.7713C20.5595 11.7226 20.8507 11.008 22.3546 11.008L24.2726 11.0071V7.7675C23.9408 7.72344 22.8022 7.6248 21.4777 7.6248C18.7123 7.6248 16.8191 9.31274 16.8191 12.4127V15.0838H13.6914V18.7059H16.8191V27.9999H20.5596V28Z" fill="#0F2E68"/>
</svg>
