<svg width="32" height="32" viewBox="0 0 32 32" fill="none" xmlns="http://www.w3.org/2000/svg">
<g clip-path="url(#clip0_14_817)">
<path d="M27.4392 16.2245C27.4392 15.2413 27.3594 14.5237 27.1867 13.7796H15.9587V18.2176H22.5493C22.4165 19.3205 21.699 20.9815 20.1044 22.0976L20.0821 22.2461L23.6321 24.9963L23.8781 25.0209C26.1369 22.9347 27.4392 19.8653 27.4392 16.2245Z" fill="#4285F4"/>
<path d="M15.9588 27.9176C19.1877 27.9176 21.8983 26.8545 23.8782 25.0209L20.1045 22.0976C19.0947 22.8018 17.7393 23.2934 15.9588 23.2934C12.7964 23.2934 10.1124 21.2074 9.15557 18.324L9.01533 18.3359L5.32391 21.1927L5.27563 21.3269C7.24217 25.2334 11.2816 27.9176 15.9588 27.9176Z" fill="#34A853"/>
<path d="M9.15551 18.324C8.90305 17.5799 8.75695 16.7826 8.75695 15.9588C8.75695 15.1349 8.90305 14.3377 9.14223 13.5936L9.13554 13.4351L5.39786 10.5324L5.27557 10.5906C4.46507 12.2117 4 14.0321 4 15.9588C4 17.8855 4.46507 19.7058 5.27557 21.3269L9.15551 18.324Z" fill="#FBBC05"/>
<path d="M15.9588 8.62403C18.2044 8.62403 19.7191 9.59402 20.5829 10.4046L23.9579 7.10928C21.8851 5.1826 19.1877 4 15.9588 4C11.2816 4 7.24217 6.68406 5.27563 10.5906L9.14229 13.5936C10.1124 10.7102 12.7964 8.62403 15.9588 8.62403Z" fill="#EB4335"/>
</g>
<defs>
<clipPath id="clip0_14_817">
<rect width="24" height="24" fill="white" transform="translate(4 4)"/>
</clipPath>
</defs>
</svg>
