<svg width="24" height="24" viewBox="0 0 24 24" fill="none" xmlns="http://www.w3.org/2000/svg">
<path d="M16.051 9.49974C16.051 8.30634 15.5853 7.16181 14.7563 6.31794C13.9273 5.47408 12.803 5 11.6306 5C10.4582 5 9.33389 5.47408 8.50491 6.31794C7.67592 7.16181 7.2102 8.30634 7.2102 9.49974C7.2102 14.7494 5 16.2494 5 16.2494H18.2612C18.2612 16.2494 16.051 14.7494 16.051 9.49974Z" stroke="#868587" stroke-width="2" stroke-linecap="round" stroke-linejoin="round"/>
<path d="M12.9051 19.2492C12.7755 19.4765 12.5896 19.6652 12.3659 19.7963C12.1422 19.9275 11.8886 19.9965 11.6305 19.9965C11.3724 19.9965 11.1188 19.9275 10.8951 19.7963C10.6714 19.6652 10.4855 19.4765 10.356 19.2492" stroke="#868587" stroke-width="2" stroke-linecap="round" stroke-linejoin="round"/>
</svg>
