<svg width="24" height="24" viewBox="0 0 24 24" fill="none" xmlns="http://www.w3.org/2000/svg">
<g id="Sacola">
<g id="Group 684">
<path id="Vector" d="M7.16667 5L5 7.88889V18C5 18.3831 5.15218 18.7505 5.42307 19.0214C5.69395 19.2923 6.06135 19.4444 6.44444 19.4444H16.5556C16.9386 19.4444 17.306 19.2923 17.5769 19.0214C17.8478 18.7505 18 18.3831 18 18V7.88889L15.8333 5H7.16667Z" stroke="#010002" stroke-width="1.5" stroke-linecap="round" stroke-linejoin="round"/>
<path id="Vector_2" d="M5 7.88889H18" stroke="#010002" stroke-width="1.5" stroke-linecap="round" stroke-linejoin="round"/>
<path id="Vector_3" d="M14.3891 10.7778C14.3891 11.544 14.0847 12.2788 13.543 12.8205C13.0012 13.3623 12.2664 13.6667 11.5002 13.6667C10.734 13.6667 9.99924 13.3623 9.45746 12.8205C8.91569 12.2788 8.61133 11.544 8.61133 10.7778" stroke="#010002" stroke-width="1.5" stroke-linecap="round" stroke-linejoin="round"/>
</g>
</g>
</svg>
